<?xml version="1.0" standalone="no"?>
<!DOCTYPE svg PUBLIC "-//W3C//DTD SVG 20010904//EN"
 "http://www.w3.org/TR/2001/REC-SVG-20010904/DTD/svg10.dtd">
<svg version="1.0" xmlns="http://www.w3.org/2000/svg"
 width="300.000000pt" height="329.000000pt" viewBox="0 0 300.000000 329.000000"
 preserveAspectRatio="xMidYMid meet">
<metadata>
Created by potrace 1.10, written by Peter Selinger 2001-2011
</metadata>
<g transform="translate(0.000000,329.000000) scale(0.100000,-0.100000)"
fill="#000000" stroke="none">
<path d="M1315 2721 c-59 -36 -86 -84 -99 -176 -5 -37 -4 -38 7 -15 44 90 108
147 149 134 21 -6 21 -6 5 10 -15 16 -19 16 -51 1 -19 -9 -37 -23 -40 -31 -3
-8 -10 -14 -16 -14 -18 0 -10 21 20 51 21 22 36 29 50 24 14 -4 20 -2 20 9 0
8 8 17 18 19 11 3 9 5 -8 6 -14 0 -38 -7 -55 -18z"/>
<path d="M1390 2709 c0 -20 28 -39 47 -32 16 6 16 5 4 -10 -11 -14 -11 -18 5
-24 11 -3 22 -11 25 -16 3 -4 30 -10 60 -12 75 -4 76 -4 59 -16 -12 -9 -11
-10 8 -6 33 8 27 -12 -9 -27 -20 -8 -27 -16 -20 -20 7 -4 17 -3 24 2 15 11 59
23 53 13 -3 -4 8 -21 24 -40 16 -18 34 -49 41 -69 6 -20 16 -42 21 -49 5 -7
13 -38 18 -70 6 -44 4 -66 -7 -90 -8 -18 -18 -33 -22 -33 -11 0 -91 130 -91
149 0 7 -7 19 -15 27 -17 17 -20 3 -5 -24 5 -9 26 -53 47 -97 38 -80 38 -80
36 -197 -2 -107 -5 -122 -33 -182 -17 -36 -37 -66 -43 -66 -6 0 -28 -17 -49
-37 -33 -32 -46 -38 -104 -44 -75 -9 -125 5 -144 40 -12 23 -40 28 -40 8 0 -8
-17 -19 -39 -25 -21 -7 -54 -23 -74 -36 -25 -18 -57 -27 -106 -32 -80 -7 -91
-16 -159 -125 -35 -57 -43 -82 -58 -174 -14 -84 -15 -116 -7 -148 7 -23 8 -50
3 -62 -5 -12 -8 -57 -8 -101 0 -51 -5 -92 -16 -116 -9 -21 -16 -51 -16 -67 0
-16 -4 -33 -10 -36 -5 -3 -10 -17 -10 -30 0 -13 -4 -26 -9 -29 -5 -3 -11 -20
-14 -38 -3 -18 -44 -145 -92 -283 -47 -137 -95 -277 -106 -309 -11 -33 -32
-86 -47 -118 -18 -37 -24 -58 -16 -58 14 0 51 59 60 95 3 14 10 25 15 25 5 0
9 15 9 33 0 18 7 43 16 55 16 23 56 132 49 132 -3 0 5 24 16 52 11 29 31 85
44 123 12 39 35 102 49 140 30 77 56 167 56 192 0 9 8 22 18 29 14 10 15 15 5
25 -15 15 -17 33 -3 24 6 -3 10 4 10 17 0 13 5 29 11 35 7 7 12 80 14 200 2
103 5 197 8 208 3 11 8 39 12 63 8 50 26 88 55 119 11 12 20 28 20 35 0 8 9
21 20 31 23 19 113 42 135 34 7 -3 19 0 25 8 6 8 28 19 48 26 20 6 42 15 48
20 19 15 24 -2 10 -30 -8 -14 -35 -71 -61 -126 -43 -93 -46 -104 -40 -155 6
-52 4 -61 -43 -155 -66 -136 -79 -163 -91 -210 -17 -68 -31 -232 -35 -415 -4
-175 -6 -201 -26 -295 -6 -27 -15 -86 -18 -130 -4 -44 -13 -90 -20 -102 -18
-32 -16 -104 2 -97 8 3 12 12 9 20 -7 18 29 19 65 0 26 -13 122 -33 112 -23
-9 9 -136 57 -152 57 -27 0 -28 12 -4 44 25 32 56 100 56 120 -1 6 -10 -6 -21
-26 -11 -21 -22 -38 -25 -38 -8 0 5 75 28 155 34 119 67 420 48 439 -7 7 -10
6 -10 -5 -1 -62 -14 -198 -21 -214 -14 -34 -2 217 14 301 9 44 20 116 26 162
9 72 19 98 75 205 70 134 83 179 62 217 -12 23 -9 32 28 105 23 44 44 82 48
85 3 3 8 21 10 39 4 41 28 55 28 17 0 -55 74 -96 174 -96 107 0 163 17 214 64
l45 41 -7 -40 c-19 -99 -25 -144 -25 -201 -1 -59 -2 -62 -38 -87 -67 -47 -65
-36 -68 -417 -2 -249 -7 -380 -19 -470 -34 -255 -57 -425 -61 -442 -2 -12 3
-18 13 -18 14 0 20 24 36 148 10 81 23 174 27 207 5 33 11 76 13 95 2 19 6 51
9 70 14 87 18 204 18 462 l0 278 44 51 c25 27 46 53 46 57 3 15 7 49 13 107 4
33 11 83 17 112 8 42 7 57 -5 82 -9 16 -16 49 -16 72 0 40 1 41 19 25 28 -25
131 -86 158 -92 13 -4 25 -10 28 -14 3 -4 49 -29 102 -56 106 -52 208 -117
235 -149 16 -18 42 -67 68 -130 8 -17 43 -145 70 -255 5 -19 12 -57 15 -85 6
-44 15 -82 33 -135 3 -8 6 -22 7 -30 1 -8 14 -59 28 -113 35 -130 43 -247 20
-295 -10 -21 -23 -44 -30 -52 -6 -8 -28 -35 -48 -60 -20 -25 -43 -53 -51 -62
-7 -10 -12 -18 -9 -18 3 0 -9 -13 -25 -28 -41 -40 -90 -103 -90 -116 1 -11 57
47 100 103 14 18 30 38 35 44 6 7 35 41 64 77 30 36 57 67 62 70 18 12 25 61
24 160 -2 90 -9 130 -49 276 -25 94 -46 182 -46 196 0 50 -79 330 -113 401
-52 108 -44 102 -267 216 -222 113 -289 152 -294 169 -4 10 -22 34 -42 53
l-36 34 6 -96 c6 -86 5 -98 -13 -121 -49 -62 -224 -90 -314 -50 -54 24 -67 45
-67 108 l0 47 23 -19 c41 -37 73 -45 142 -35 36 5 77 18 93 30 35 24 90 87
114 127 10 16 27 41 39 56 15 18 19 32 14 45 -11 25 -8 92 6 125 6 16 9 44 6
63 -5 33 6 49 16 23 3 -7 6 -3 6 8 1 12 10 33 21 47 24 30 25 48 5 88 -9 16
-14 33 -11 38 7 11 -18 89 -44 141 -31 60 -96 128 -131 135 -16 4 -40 17 -52
30 -12 13 -46 30 -76 39 -64 19 -81 20 -81 5z"/>
<path d="M1180 2563 c-48 -18 -150 -157 -150 -206 0 -37 31 -99 47 -93 8 3 16
-10 24 -37 6 -23 16 -51 23 -62 7 -11 16 -42 20 -70 7 -53 36 -135 48 -135 3
0 0 24 -8 53 -16 62 -18 159 -3 207 5 19 11 62 13 95 3 84 38 136 102 153 25
7 50 10 55 7 5 -4 9 1 9 9 0 20 29 10 53 -18 l18 -21 -7 25 c-7 25 -7 25 15 6
11 -11 24 -16 28 -13 3 4 0 7 -8 7 -12 0 -11 2 1 10 29 18 -6 34 -75 32 -82
-1 -127 -10 -119 -24 5 -7 0 -9 -14 -6 -15 4 -23 1 -27 -12 -7 -23 -34 -33
-50 -20 -21 18 -52 20 -52 4 0 -8 6 -13 13 -10 7 3 23 -3 35 -13 20 -16 20
-18 5 -34 -10 -9 -14 -22 -11 -27 4 -6 2 -17 -5 -25 -7 -8 -7 -16 -1 -19 11
-7 2 -89 -12 -98 -6 -3 -24 15 -40 40 -16 26 -37 52 -46 59 -15 12 -15 14 2
24 12 7 15 17 11 33 -9 39 51 135 100 157 14 7 26 16 26 21 0 4 -1 8 -2 7 -2
0 -10 -3 -18 -6z"/>
<path d="M2877 2533 c-3 -2 -161 -14 -257 -19 -46 -2 -89 -9 -94 -14 -11 -11
-14 -36 -22 -170 -7 -116 -6 -159 5 -178 4 -8 11 63 15 159 4 95 8 174 9 175
2 2 440 34 460 34 4 0 7 5 7 10 0 8 -115 11 -123 3z"/>
<path d="M2857 2433 c-5 -4 -111 -11 -193 -12 l-61 -1 -8 -91 c-4 -54 -3 -95
3 -101 5 -5 44 -6 95 -2 l86 7 4 66 3 66 2 -69 2 -69 68 6 c37 4 79 7 95 7 15
0 27 3 27 8 0 4 -40 5 -89 4 l-89 -4 -4 82 c-2 49 1 84 7 85 6 2 45 6 88 9
l77 6 2 -68 1 -67 6 65 c4 36 5 69 3 73 -4 7 -118 8 -125 0z m-84 -100 c-3
-43 -8 -80 -10 -83 -2 -3 -38 -6 -79 -8 l-74 -4 0 80 c0 92 -6 87 112 91 l56
1 -5 -77z"/>
<path d="M2687 2383 c-8 -13 -5 -63 3 -63 11 0 20 54 10 63 -4 5 -10 5 -13 0z"/>
<path d="M1525 2252 c-11 -2 -27 -6 -35 -9 -8 -4 -22 -8 -30 -8 -28 -4 -60
-17 -60 -26 0 -11 14 -12 24 -1 4 4 29 8 54 8 26 1 63 8 82 16 34 14 34 15 10
19 -14 3 -34 3 -45 1z"/>
<path d="M1218 2207 c-9 -17 -8 -19 7 -14 9 4 39 7 66 7 39 0 47 3 43 15 -10
24 -102 18 -116 -8z"/>
<path d="M1480 2197 c-14 -6 -28 -15 -31 -20 -9 -13 1 -44 19 -59 13 -11 15
-10 9 5 -5 15 -4 16 13 7 10 -5 30 -10 45 -10 18 0 24 -4 19 -12 -4 -7 5 -2
19 11 15 14 27 25 27 27 0 1 -19 -1 -43 -3 -32 -4 -46 -1 -56 11 -11 13 -11
20 -3 28 8 8 13 7 18 -5 8 -21 34 -22 34 -2 0 8 7 15 15 15 8 0 15 -6 15 -14
0 -9 7 -12 20 -9 11 3 20 9 20 13 0 21 -103 33 -140 17z"/>
<path d="M1257 2175 c-50 -17 -52 -20 -39 -50 13 -29 48 -45 96 -45 36 0 49
11 65 53 9 24 8 28 -19 42 -35 18 -53 18 -103 0z m32 -22 c10 -17 12 -17 25 0
16 20 26 22 26 4 0 -21 -58 -50 -86 -43 -26 7 -33 26 -9 26 8 0 15 7 15 15 0
20 17 19 29 -2z"/>
<path d="M2755 2158 c-121 -5 -220 -10 -222 -11 -1 -2 0 -13 4 -25 5 -20 11
-22 62 -20 l56 2 -47 3 c-74 6 -57 23 25 25 39 1 81 3 92 4 11 1 77 2 148 3
106 1 127 4 127 16 0 8 -6 14 -12 13 -7 0 -112 -5 -233 -10z"/>
<path d="M1325 2046 c-17 -17 -25 -35 -23 -55 1 -16 -4 -36 -11 -45 -15 -18
-7 -51 9 -41 6 4 22 -1 36 -10 18 -11 45 -16 92 -15 87 2 90 1 72 -10 -8 -5
-10 -10 -4 -10 11 0 74 73 74 86 0 4 -26 3 -57 -1 -32 -4 -91 -8 -131 -10 -70
-4 -72 -3 -61 17 8 16 8 23 -2 29 -12 8 -11 12 2 22 19 15 43 57 35 64 -2 3
-16 -6 -31 -21z m192 -133 c-9 -9 -42 -17 -79 -20 -51 -4 -66 -2 -77 11 -13
15 -9 17 40 16 30 -1 68 3 84 8 37 11 52 4 32 -15z"/>
<path d="M1500 2050 c6 -11 14 -19 18 -17 15 4 72 -61 72 -83 0 -12 5 -18 10
-15 20 12 9 35 -40 85 -51 52 -79 66 -60 30z"/>
<path d="M1443 1990 c4 -15 0 -20 -14 -20 -11 0 -22 7 -25 15 -9 23 -51 19
-49 -5 2 -29 12 -35 32 -19 11 9 14 10 9 2 -9 -16 24 -17 77 -2 28 7 37 15 33
26 -3 8 -6 17 -6 19 0 2 -14 4 -31 4 -26 0 -31 -3 -26 -20z"/>
<path d="M1390 1848 c8 -8 19 -15 25 -15 5 0 18 -4 27 -8 11 -4 20 0 28 14 7
14 7 21 0 21 -5 0 -10 -5 -10 -11 0 -6 -7 -8 -16 -5 -9 3 -28 9 -42 13 -22 5
-24 4 -12 -9z"/>
<path d="M723 68 c-7 -8 -10 -17 -7 -21 3 -3 1 -15 -6 -26 -7 -14 -7 -21 0
-21 13 0 32 47 28 68 -3 13 -4 13 -15 0z"/>
<path d="M770 51 c0 -10 -3 -26 -6 -35 -4 -10 -1 -16 8 -16 16 0 23 56 8 65
-5 3 -10 -3 -10 -14z"/>
</g>
</svg>
